<?xml version="1.0" encoding="utf-8"?>
<!-- Generator: Adobe Illustrator 23.0.2, SVG Export Plug-In . SVG Version: 6.00 Build 0)  -->
<svg version="1.1"
	 id="svg439" xmlns:cc="http://creativecommons.org/ns#" xmlns:dc="http://purl.org/dc/elements/1.1/" xmlns:inkscape="http://www.inkscape.org/namespaces/inkscape" xmlns:rdf="http://www.w3.org/1999/02/22-rdf-syntax-ns#" xmlns:sodipodi="http://sodipodi.sourceforge.net/DTD/sodipodi-0.dtd" xmlns:svg="http://www.w3.org/2000/svg"
	 xmlns="http://www.w3.org/2000/svg" xmlns:xlink="http://www.w3.org/1999/xlink" x="0px" y="0px" viewBox="0 0 2211.2 581.3"
	 style="enable-background:new 0 0 2211.2 581.3;" xml:space="preserve">
<style type="text/css">
	.st0{fill:#EEEEEE;}
</style>
<g>
	<g>
		<ellipse id="ellipse80_1_" class="st0" cx="67.9" cy="265.1" rx="33.3" ry="32.6"/>
		<path class="st0" d="M292.8,581.3C131.4,581.3,0,451,0,290.7S131.4,0,292.8,0s292.8,130.4,292.8,290.7S454.3,581.3,292.8,581.3z
			 M292.8,37.8c-140.6,0-255,113.4-255,252.8s114.4,252.8,255,252.8s255-113.4,255-252.8S433.4,37.8,292.8,37.8z"/>
		<ellipse id="ellipse152_1_" class="st0" cx="253.8" cy="158" rx="34.1" ry="33.3"/>
		<ellipse id="ellipse154_1_" class="st0" cx="208.4" cy="239.6" rx="34.1" ry="33.3"/>
		<ellipse id="ellipse156_1_" class="st0" cx="94.1" cy="409.9" rx="31.2" ry="30.5"/>
		<ellipse id="ellipse158_1_" class="st0" cx="230.4" cy="513.5" rx="28.4" ry="27.7"/>
		<ellipse id="ellipse160_1_" class="st0" cx="169.3" cy="326.9" rx="33.3" ry="32.6"/>
		<ellipse id="ellipse162_1_" class="st0" cx="225.4" cy="406.3" rx="28.4" ry="27.7"/>
		<ellipse id="ellipse164_1_" class="st0" cx="302" cy="474.4" rx="28.4" ry="27.7"/>
		<ellipse id="ellipse166_1_" class="st0" cx="336.1" cy="413.4" rx="21.3" ry="20.6"/>
		<ellipse id="ellipse168_1_" class="st0" cx="308.4" cy="353.1" rx="21.3" ry="20.6"/>
		<ellipse id="ellipse170_1_" class="st0" cx="314.8" cy="262.3" rx="21.3" ry="20.6"/>
		<circle id="ellipse172_1_" class="st0" cx="390.7" cy="460.3" r="14.2"/>
		<circle id="ellipse174_1_" class="st0" cx="404.9" cy="373.7" r="14.2"/>
		<circle id="ellipse176_1_" class="st0" cx="419.1" cy="248.1" r="14.2"/>
		<circle id="ellipse178_1_" class="st0" cx="390.7" cy="133.9" r="14.2"/>
		<circle id="ellipse180_1_" class="st0" cx="302" cy="48.7" r="14.2"/>
		<ellipse id="ellipse182_1_" class="st0" cx="429" cy="82.8" rx="12.1" ry="11.4"/>
		<ellipse id="ellipse184_1_" class="st0" cx="460.3" cy="155.2" rx="12.1" ry="11.4"/>
		<ellipse id="ellipse186_1_" class="st0" cx="529.8" cy="197.7" rx="12.1" ry="11.4"/>
		<ellipse id="ellipse188_1_" class="st0" cx="490.1" cy="241" rx="12.1" ry="11.4"/>
		<ellipse id="ellipse190_1_" class="st0" cx="529.8" cy="279.3" rx="12.1" ry="11.4"/>
		<ellipse id="ellipse192_1_" class="st0" cx="448.9" cy="413.4" rx="12.1" ry="11.4"/>
		<ellipse id="ellipse194_1_" class="st0" cx="417.7" cy="505.7" rx="12.1" ry="11.4"/>
		<ellipse id="ellipse196_1_" class="st0" cx="529.8" cy="364.5" rx="12.1" ry="11.4"/>
		<ellipse id="ellipse198_1_" class="st0" cx="505.7" cy="417" rx="7.8" ry="7.1"/>
		<ellipse id="ellipse200_1_" class="st0" cx="145.9" cy="115.4" rx="33.3" ry="32.6"/>
		<polygon class="st0" points="69,269.7 66.5,266.5 292.7,54.7 154.5,110.9 153,107.2 311.3,42.8 84.6,255 241.4,156.3 243.5,159.7 
					"/>
		<path class="st0" d="M229.8,515.5l-0.6-0.4L84.4,414.6l-0.1-0.9L65.8,264.8l0.3-0.5l73.1-149.7l3.6,1.8l-71.4,146L207,237.8
			L307.9,45.3l79.9,84.6l1.1-2l40.6-49l32.2,77.6l70,40l-0.2,173.1L507,418.4l-88.5,89.3h-0.8L229.8,515.5z M88.2,412.3L231,511.4
			l185.9-7.7l87.2-87.9l23.8-47.5v-1.9l-127.2,9.3l-70.3,39.8H219.7l-122.9-3.6L100,387l0.6-0.5l73.6-66.3l140.6-64.3l70.9-122.3
			l-76.8-81.3l-99.2,189.2L70.1,266.8L88.2,412.3z M101.4,407.9l118.4,3.5h109.4l70.6-39.7l123.1-9L488.3,242l-99.7-105.5l-71,122.4
			l-0.6,0.3l-140.9,64.4l-72.3,65.3L101.4,407.9z M390.7,132.9L492,240.5L527.8,365V198.9l-69.1-39.5l-0.3-0.6l-29.9-72.1
			l-36.2,43.6L390.7,132.9z"/>
		<polygon class="st0" points="389.3,466.7 334.2,414.2 312.8,359.9 314.2,257.3 300,40.3 304,40.1 318.2,257.2 316.8,359.1 
			337.8,412.3 392.1,463.8 		"/>
		<polygon class="st0" points="301,462 223.9,418.4 177.8,337.5 66.8,266.8 69,263.4 181,335.1 226.9,415.5 303,458.5 		"/>
		
			<rect x="149" y="285.9" transform="matrix(0.4903 -0.8716 0.8716 0.4903 -154.6081 311.2939)" class="st0" width="79.7" height="3.8"/>
		<polygon class="st0" points="143.9,511.9 140.8,509.4 223.8,405.1 313.9,257.3 260.5,158.9 264.1,157 318.5,257.4 317.9,258.4 
			227.1,407.4 		"/>
		<polygon class="st0" points="231.2,403.9 229.5,400.3 307.9,362.8 416.9,251.7 393,134.3 396.9,133.5 421.3,253 420.5,253.8 
			310,366.3 		"/>
		<polygon class="st0" points="400.8,375.9 308,355.1 308.9,351.2 399.1,371.4 487.5,250.1 429,250.1 315,261.5 314.6,257.5 
			428.8,246.1 495.4,246.1 		"/>
		<polygon class="st0" points="447.8,408 397.8,374.7 415.7,244.3 419.7,244.8 402.1,372.7 450,404.7 		"/>
		
			<rect x="418.3" y="327.9" transform="matrix(4.145443e-02 -0.9991 0.9991 4.145443e-02 -10.2915 816.0814)" class="st0" width="3.8" height="171.1"/>
		<polygon class="st0" points="419.6,506.4 415.8,504.9 448.3,420.1 386.3,462.2 316.8,482.8 315.6,478.9 384.9,458.4 456.6,409.6 
					"/>
		<polygon class="st0" points="450.9,414.6 446.9,413.7 489.4,241.1 458.4,155.8 462.1,154.5 493.6,240.9 493.4,241.5 		"/>
		
			<rect x="359" y="426.3" transform="matrix(0.2562 -0.9666 0.9666 0.2562 -202.5452 711.23)" class="st0" width="3.8" height="121.8"/>
	</g>
	<g>
		<path class="st0" d="M690.5,404.8c-4.7,0-7.8,1.6-7.8,4.4c0,9.2,26,4.3,25.9,19.4c0,7.5-7.6,12.1-18.2,12.1
			c-7.6,0-14.7-2.7-19.7-6.7l3.5-6.1c5,4,11.1,6.1,16.3,6.1c5.6,0,9-1.9,9-5.1c0-9.3-26-4.1-26-19.1c0-7.2,7.1-11.7,17.5-11.7
			c6.3,0,12.4,1.7,16.8,4.3l-3.4,6.2C699.4,405.9,694.1,404.8,690.5,404.8z"/>
		<path class="st0" d="M751.9,434.3c7.8,0,12.7-4.2,12.7-11.3v-24.6h8.1V423c0,11-7.9,17.7-20.9,17.7s-21-6.7-21-17.7v-24.6h8.1V423
			C739,430.1,744,434.3,751.9,434.3z"/>
		<path class="st0" d="M836.4,412.8c0,9.5-6.9,15-19,15h-11.1v12.6h-8.1v-41.9h19.2C829.4,398.4,836.4,403.7,836.4,412.8z
			 M828.6,412.9c0-5.5-4.2-8.1-11.6-8.1h-10.7v16.6H817C824.4,421.4,828.6,418.6,828.6,412.9z"/>
		<path class="st0" d="M892.6,398.4v6.4h-26.3v11.4h23.5v6.3h-23.5V434h27.1v6.4h-35.2v-41.9h34.4V398.4z"/>
		<path class="st0" d="M947.6,440.4l-8.8-12.7c-0.7,0.1-1.4,0.1-2.2,0.1h-11.4v12.6H917v-41.9h19.5c12.3,0,19.4,5.2,19.4,14.3
			c0,6.7-3.6,11.4-10,13.6l10.8,14H947.6z M936.6,421.4c7.4,0,11.7-2.8,11.7-8.4c0-5.5-4.3-8.1-11.7-8.1h-11.4v16.6h11.4V421.4z"/>
		<path class="st0" d="M1002,404.6c-9.6,0-17.2,6.5-17.2,14.7c0,8.3,7.6,14.8,17.2,14.8c4.8,0,9.8-1.9,13.4-5l4.8,4.7
			c-4.9,4.2-11.8,6.9-18.6,6.9c-14.1,0-25-9.3-25-21.3c0-11.9,11.1-21.1,25.3-21.1c6.8,0,13.6,2.5,18.3,6.5l-4.7,5.2
			C1011.9,406.6,1006.9,404.6,1002,404.6z"/>
		<path class="st0" d="M1050.3,398.4v18.2h25.5v-18.2h8.1v41.9h-8.1V423h-25.5v17.4h-8.1v-41.9h8.1V398.4z"/>
		<path class="st0" d="M1141.4,430.9h-24.3l-4.6,9.5h-8.5l21.3-41.9h8.3l21,41.9h-8.7L1141.4,430.9z M1138.4,424.6l-9.1-18.6
			l-9.1,18.6H1138.4z"/>
		<path class="st0" d="M1205.4,440.4l-8.8-12.7c-0.7,0.1-1.4,0.1-2.2,0.1H1183v12.6h-8.1v-41.9h19.5c12.3,0,19.4,5.2,19.4,14.3
			c0,6.7-3.6,11.4-10,13.6l10.8,14H1205.4z M1194.4,421.4c7.4,0,11.7-2.8,11.7-8.4c0-5.5-4.3-8.1-11.7-8.1H1183v16.6h11.4V421.4z"/>
		<path class="st0" d="M1271.3,419.8h7.1v15.5c-4.9,3.2-12.1,5.5-18.7,5.5c-14.2,0-25.3-9.3-25.3-21.3s11.2-21.2,25.8-21.2
			c6.9,0,13.8,2.3,18.5,5.9l-4.6,5.2c-3.7-3-8.9-4.8-13.9-4.8c-9.8,0-17.5,6.5-17.5,14.9s7.8,14.9,17.6,14.9c3.6,0,7.6-1.1,11.1-2.9
			L1271.3,419.8L1271.3,419.8z"/>
		<path class="st0" d="M1338,398.4v6.4h-26.3v11.4h23.5v6.3h-23.5V434h27.1v6.4h-35.2v-41.9h34.4V398.4z"/>
		<path class="st0" d="M1451,426.4v14h-8v-13.7l-18-28.2h8.2l13.8,20.4l13.5-20.4h8.3L1451,426.4z"/>
		<path class="st0" d="M1535.6,419.4c0,12-11.1,21.3-25.5,21.3s-25.5-9.3-25.5-21.3s11.1-21.2,25.5-21.2
			C1524.5,398.3,1535.6,407.4,1535.6,419.4z M1492.8,419.4c0,8.3,7.9,14.9,17.3,14.9s17.1-6.6,17.1-14.9s-7.7-14.8-17.1-14.8
			C1500.7,404.6,1492.8,411.1,1492.8,419.4z"/>
		<path class="st0" d="M1578.1,434.3c7.8,0,12.7-4.2,12.7-11.3v-24.6h8.1V423c0,11-7.9,17.7-20.9,17.7s-21-6.7-21-17.7v-24.6h8.1
			V423C1565.2,430.1,1570.2,434.3,1578.1,434.3z"/>
		<path class="st0" d="M1654.9,440.4l-8.8-12.7c-0.7,0.1-1.4,0.1-2.2,0.1h-11.4v12.6h-8.1v-41.9h19.5c12.3,0,19.4,5.2,19.4,14.3
			c0,6.7-3.6,11.4-10,13.6l10.8,14H1654.9z M1643.8,421.4c7.4,0,11.7-2.8,11.7-8.4c0-5.5-4.3-8.1-11.7-8.1h-11.4v16.6h11.4V421.4z"
			/>
		<path class="st0" d="M1793.6,408.9c0,4.7-3.2,8.2-8.5,9.3c6.5,1,10.3,5,10.3,10.6c0,7.2-6.7,11.5-17.5,11.5h-21.4v-41.9h20.9
			C1787.4,398.4,1793.6,402.4,1793.6,408.9z M1785.3,410.2c0-3.5-3.1-5.5-8.3-5.4h-12.4v11h12.4
			C1782.2,415.8,1785.3,413.8,1785.3,410.2z M1787.2,428c0-3.7-3.8-6-10.1-5.9h-12.4v12h12.4C1783.4,434.1,1787.2,431.9,1787.2,428z
			"/>
		<path class="st0" d="M1839,434.3c7.8,0,12.7-4.2,12.7-11.3v-24.6h8.1V423c0,11-7.9,17.7-20.9,17.7s-21-6.7-21-17.7v-24.6h8.1V423
			C1826,430.1,1831.1,434.3,1839,434.3z"/>
		<path class="st0" d="M1900.4,404.8c-4.7,0-7.8,1.6-7.8,4.4c0,9.2,26,4.3,25.9,19.4c0,7.5-7.6,12.1-18.2,12.1
			c-7.6,0-14.7-2.7-19.7-6.7l3.5-6.1c5,4,11.1,6.1,16.3,6.1c5.6,0,9-1.9,9-5.1c0-9.3-26-4.1-26-19.1c0-7.2,7.1-11.7,17.5-11.7
			c6.3,0,12.4,1.7,16.8,4.3l-3.4,6.2C1909.2,405.9,1904,404.8,1900.4,404.8z"/>
		<path class="st0" d="M1949.8,398.4v41.9h-8.1v-41.9H1949.8z"/>
		<path class="st0" d="M1984.2,398.4l25.8,30.1v-30.1h8v41.9h-8l-25.7-30.1v30.1h-8.1v-41.9H1984.2z"/>
		<path class="st0" d="M2078.8,398.4v6.4h-26.3v11.4h23.5v6.3h-23.5V434h27.1v6.4h-35.2v-41.9h34.4V398.4z"/>
		<path class="st0" d="M2118.5,404.8c-4.7,0-7.8,1.6-7.8,4.4c0,9.2,26,4.3,25.9,19.4c0,7.5-7.6,12.1-18.2,12.1
			c-7.6,0-14.7-2.7-19.7-6.7l3.5-6.1c5,4,11.1,6.1,16.3,6.1c5.6,0,9-1.9,9-5.1c0-9.3-26-4.1-26-19.1c0-7.2,7.1-11.7,17.5-11.7
			c6.3,0,12.4,1.7,16.8,4.3l-3.4,6.2C2127.4,405.9,2122.2,404.8,2118.5,404.8z"/>
		<path class="st0" d="M2175.1,404.8c-4.7,0-7.8,1.6-7.8,4.4c0,9.2,26,4.3,25.9,19.4c0,7.5-7.6,12.1-18.2,12.1
			c-7.6,0-14.7-2.7-19.7-6.7l3.5-6.1c5,4,11.1,6.1,16.3,6.1c5.6,0,9-1.9,9-5.1c0-9.3-26-4.1-26-19.1c0-7.2,7.1-11.7,17.5-11.7
			c6.3,0,12.4,1.7,16.8,4.3l-3.4,6.2C2183.9,405.9,2178.7,404.8,2175.1,404.8z"/>
	</g>
	<g>
		<path class="st0" d="M721.6,314.2c0,31.4,1.7,34,23.2,35.4v9.9h-75.3v-9.9c21.8-1.4,24.3-4.5,24.3-33.1v-36.2
			c0-21.5-0.6-36.5-2-41.6c-2-9.6-5.7-11.3-22.9-11.3v-9.9l46.1-10.8l3.7,28.3h1.4c17-19.3,35.1-28.3,57.8-28.3
			c23.8,0,40.8,10.2,47,28h1.1c13.9-17.6,35.1-28,57.5-28c17.6,0,33.1,6.2,40.8,16.4c6.8,8.8,9.3,21.5,9.3,46.1v45
			c0,31.1,2,34,23.5,35.4v9.9h-75.3v-9.9c21.5-1.1,24.1-4.8,24.1-33.1v-35.7c0-43.3-8.8-58.6-33.1-58.6c-16.4,0-32.3,10.2-40.5,25.5
			c-4,7.6-4.8,12.7-4.8,30.6v36c0,31.1,1.7,34,23.8,35.4v9.9H776v-9.9c21.5-1.4,23.8-4.5,23.8-33.1v-35.7c0-43.9-8.2-58.6-32.6-58.6
			c-16.7,0-33.1,10.2-40.8,25.5c-4,7.6-4.8,12.7-4.8,30.6L721.6,314.2L721.6,314.2z"/>
		<path class="st0" d="M1134.4,283.4c0,45.9-36.5,79-79.5,79c-42.5,0-78.4-32.8-78.4-79c0-44.7,36-76.7,78.4-76.7
			C1097.8,206.6,1134.4,238.9,1134.4,283.4z M1008.4,283.6c0,39.1,18.1,64.3,46.4,64.3c28.9,0,47.6-25.5,47.6-64.3
			c0-37.7-19-63.4-47.6-63.4C1026.8,220.2,1008.4,245.7,1008.4,283.6z"/>
		<path class="st0" d="M1285,335.7h-1.1c-13.6,19-28,26.6-48.7,26.6c-42.7,0-73.6-32.6-73.6-78.1c0-44.7,31.1-77.6,73.6-77.6
			c17.8,0,31.7,5.9,44.7,19v-28.9c0-21.2-0.6-36.5-1.7-41.6c-2-8.2-9.6-11.3-29.2-11.3v-8.5l58-10.8v163.3c0,26,0.3,43,2,50.1
			c2.3,9.1,5.4,11.6,22.9,11.6v9.6l-47,3.1L1285,335.7L1285,335.7z M1279.3,273.2c0-19.8-1.7-28-7.6-35.7
			c-8.5-11.3-23.5-17.3-36.5-17.3c-26.9,0-41.6,24.3-41.6,62.6c0,39.9,14.4,66,41.6,66c13.3,0,29.4-6.5,36.8-17.8
			c5.4-8.2,7.4-18.7,7.4-39.1v-18.7H1279.3z"/>
		<path class="st0" d="M1486.8,333.2c-16.4,19.8-35.7,29.2-59.7,29.2c-44.2,0-74.2-30.9-74.2-76.2c0-46.4,32-79.5,77.6-79.5
			c36.2,0,57.5,20.7,57.5,57.5c0,5.1-1.1,5.7-8.8,5.7H1386c-0.8,3.1-1.1,7.6-1.1,12.7c0,39.3,19.8,65.1,50.1,65.1
			c15.6,0,28.9-6.8,43-22.4L1486.8,333.2z M1440.1,256.8c15.3,0,17-1.1,17-7.9c0-17.3-12.2-28.6-31.1-28.6
			c-20.1,0-33.1,12.5-37.9,36.5H1440.1z"/>
		<path class="st0" d="M1560.4,315.4c0,28.6,3.4,33.4,25.2,34.3v9.9h-78.1v-9.9c22.4-1.1,26.6-6.2,26.6-32.3v-122
			c0-20.4-0.6-34.8-1.7-39.6c-2-8.8-7.4-11-25.5-11V135l53.5-10.5V315.4z"/>
		<path class="st0" d="M1657.8,314.5c0,29.2,4,34.3,26.3,35.1v9.9h-81.2v-9.9c22.9-1.1,27.2-6.5,27.2-33.1v-36.2
			c0-21.8-0.6-36.5-2-41.6c-1.7-8.8-7.1-11.3-25.8-11.3v-9.9l55.5-10.8V314.5z M1642.8,131.6c9.9,0,17.6,7.6,17.6,17.6
			c0,9.9-7.6,17.6-17.6,17.6c-9.9,0-17.6-7.6-17.6-17.6C1625.2,139.3,1632.9,131.6,1642.8,131.6z"/>
		<path class="st0" d="M1714.1,359.5h-6.2v-48.7h7.1c7.4,26.9,20.4,39.9,40.2,39.9c15,0,24.6-7.4,24.6-22.4c0-11-5.1-14.4-32.8-31.7
			c-25.5-16.1-38.2-25.2-38.2-46.4c0-25.8,18.4-43.6,42.2-43.6c10.2,0,22.1,3.4,30.3,8.8l5.7-5.9h5.4v40.8h-7.4
			c-8.2-22.9-17.3-32-31.7-32c-12.7,0-21.2,7.1-21.2,19.3c0,12.5,8.5,18.4,27.7,30.3c32.6,20.4,45.3,30,45.3,51.5
			c0,26.6-19.2,43-47.3,43c-14.7,0-27.7-4.5-37.9-12.7L1714.1,359.5z"/>
		<path class="st0" d="M2026.4,280.5h-75.6c-13,31.1-17.6,46.7-17.6,54.4c0,10.5,6.5,13.9,22.1,13.9v10.8h-68.8v-10.8
			c17.3-2,24.3-6.8,30.9-22.9l73.6-184.3h12.2l64.3,159.7c17.3,42.5,23.5,47.3,43,47.3v11h-92.3v-11c20.1,0,26.3-3.4,26.3-12.2
			c0-7.4-1.4-12.2-6.5-25.2L2026.4,280.5z M1956.4,266.4h64.5l-31.4-83.5L1956.4,266.4z"/>
		<path class="st0" d="M2180.4,306c0,37.4,4.2,41.9,30.9,42.7v10.8h-91.7v-10.8c26.6-0.8,31.1-5.7,31.1-40.8V193.1
			c0-32-4-39.6-28.3-40.8v-10.8h86.1v10.8c-24.3,0.8-28,8.5-28,42.7v111H2180.4z"/>
	</g>
</g>
</svg>
