<svg id="Layer_1" data-name="Layer 1" xmlns="http://www.w3.org/2000/svg" viewBox="0 0 800 800"><defs><style>.cls-1{fill:#eee;}</style></defs><title>sphere</title><ellipse id="ellipse80" class="cls-1" cx="92.73" cy="364.85" rx="45.56" ry="44.91"/><path class="cls-1" d="M400,800C179.44,800,0,620.56,0,400S179.44,0,400,0,800,179.44,800,400,620.56,800,400,800Zm0-747.92C207.94,52.08,51.7,208.16,51.7,400S207.94,747.92,400,747.92,748.3,591.85,748.3,400,592.06,52.08,400,52.08Z"/><ellipse id="ellipse152" class="cls-1" cx="346.69" cy="217.41" rx="46.53" ry="45.89"/><ellipse id="ellipse154" class="cls-1" cx="284.65" cy="329.7" rx="46.53" ry="45.89"/><ellipse id="ellipse156" class="cls-1" cx="128.59" cy="564.04" rx="42.65" ry="41.99"/><ellipse id="ellipse158" class="cls-1" cx="314.7" cy="706.59" rx="38.77" ry="38.08"/><ellipse id="ellipse160" class="cls-1" cx="231.34" cy="449.8" rx="45.56" ry="44.91"/><ellipse id="ellipse162" class="cls-1" cx="307.92" cy="559.15" rx="38.77" ry="38.08"/><ellipse id="ellipse164" class="cls-1" cx="412.6" cy="652.89" rx="38.77" ry="38.08"/><ellipse id="ellipse166" class="cls-1" cx="459.13" cy="568.92" rx="29.08" ry="28.32"/><ellipse id="ellipse168" class="cls-1" cx="421.32" cy="485.92" rx="29.08" ry="28.32"/><ellipse id="ellipse170" class="cls-1" cx="430.05" cy="360.94" rx="29.08" ry="28.32"/><ellipse id="ellipse172" class="cls-1" cx="533.76" cy="633.36" rx="19.39" ry="19.53"/><ellipse id="ellipse174" class="cls-1" cx="553.15" cy="514.24" rx="19.39" ry="19.53"/><ellipse id="ellipse176" class="cls-1" cx="572.54" cy="341.42" rx="19.39" ry="19.53"/><ellipse id="ellipse178" class="cls-1" cx="533.76" cy="184.22" rx="19.39" ry="19.53"/><ellipse id="ellipse180" class="cls-1" cx="412.6" cy="67.05" rx="19.39" ry="19.53"/><ellipse id="ellipse182" class="cls-1" cx="586.11" cy="113.91" rx="16.48" ry="15.62"/><ellipse id="ellipse184" class="cls-1" cx="628.76" cy="213.51" rx="16.48" ry="15.62"/><ellipse id="ellipse186" class="cls-1" cx="723.75" cy="272.09" rx="16.48" ry="15.62"/><ellipse id="ellipse188" class="cls-1" cx="669.47" cy="331.65" rx="16.48" ry="15.62"/><ellipse id="ellipse190" class="cls-1" cx="723.75" cy="384.38" rx="16.48" ry="15.62"/><ellipse id="ellipse192" class="cls-1" cx="613.25" cy="568.92" rx="16.48" ry="15.62"/><ellipse id="ellipse194" class="cls-1" cx="570.6" cy="695.85" rx="16.48" ry="15.62"/><ellipse id="ellipse196" class="cls-1" cx="723.75" cy="501.55" rx="16.48" ry="15.62"/><ellipse id="ellipse198" class="cls-1" cx="690.79" cy="573.8" rx="10.66" ry="9.76"/><ellipse id="ellipse200" class="cls-1" cx="199.35" cy="158.83" rx="45.56" ry="44.91"/><polygon class="cls-1" points="94.19 371.1 90.85 366.74 399.9 75.24 211.05 152.6 208.98 147.48 425.31 58.85 115.62 350.95 329.72 215.07 332.64 219.76 94.19 371.1"/><path class="cls-1" d="M313.89,709.39l-.76-.53L115.35,570.49l-.14-1.23L89.9,364.38l.36-.74,99.84-206,4.93,2.44L97.58,361.15l185.26-33.93L420.68,62.33,529.82,178.71l1.57-2.72,55.51-67.36,44,106.85,95.56,55-.3,238.16-33.46,67.1-121,122.84-1.08,0Zm-193.38-142,195,136.44,253.9-10.66,119.12-121L721,506.75V504.1L547.19,517l-96.06,54.73h-151l-167.89-5,4.39-34.31.76-.69L238,440.45,430.05,352l96.89-168.25L422,71.76,286.46,332.18,95.78,367.11Zm18-6,161.75,4.8H449.68l96.49-54.66L714.36,499,667,333.06,530.85,187.87,433.92,356.26l-.79.36L240.62,445.3l-98.77,89.84ZM533.73,182.88l138.38,148L721,502.28V273.7l-94.42-54.36-.36-.87-40.91-99.26-49.43,59.94Z"/><polygon class="cls-1" points="531.87 642.2 456.57 569.93 427.29 495.22 429.24 354.07 409.86 55.52 415.35 55.15 434.73 353.93 432.8 494.2 461.46 567.33 535.66 638.19 531.87 642.2"/><polygon class="cls-1" points="411.25 635.77 305.9 575.83 242.86 464.46 91.26 367.18 94.21 362.52 247.3 461.12 309.93 571.76 413.95 630.95 411.25 635.77"/><polygon class="cls-1" points="233.59 445.21 229.09 442.66 282.4 346.98 286.91 349.53 233.59 445.21"/><polygon class="cls-1" points="196.65 704.41 192.36 700.96 305.77 557.43 428.82 354.03 355.91 218.73 360.74 216.09 435.15 354.19 434.33 355.55 310.26 560.6 196.65 704.41"/><polygon class="cls-1" points="315.89 555.8 313.52 550.8 420.67 499.26 569.55 346.39 536.89 184.77 542.27 183.66 575.52 348.17 574.5 349.22 423.48 504.05 315.89 555.8"/><polygon class="cls-1" points="547.53 517.34 420.72 488.63 421.93 483.23 545.21 511.14 666.01 344.18 586.11 344.18 430.32 359.8 429.77 354.29 585.83 338.66 676.8 338.64 547.53 517.34"/><polygon class="cls-1" points="611.73 561.46 543.41 515.58 567.88 336.16 573.32 336.92 549.33 512.9 614.77 556.85 611.73 561.46"/><rect class="cls-1" x="571.39" y="452.02" width="5.21" height="233.8" transform="matrix(0.04, -1, 1, 0.04, -18.4, 1118.65)"/><polygon class="cls-1" points="573.17 696.84 568.03 694.87 612.39 578.13 527.75 636.01 432.76 664.33 431.21 659.02 525.78 630.83 623.79 563.62 573.17 696.84"/><polygon class="cls-1" points="615.92 570.55 610.58 569.23 668.54 331.81 626.17 214.45 631.34 212.56 674.27 331.5 674.08 332.31 615.92 570.55"/><polygon class="cls-1" points="572.84 694.47 411.94 651.51 413.27 646.47 574.17 689.43 572.84 694.47"/></svg>